<?xml version='1.0' encoding='utf-8'?>
<svg xmlns="http://www.w3.org/2000/svg" version="1.1" id="Layer_1" x="0px" y="0px" viewBox="0 0 2628.05 728.783" enable-background="new 0 0 2628.05 728.783"> <g> <path d="M2569.293,355.322c-58.062-0.012-116.124-0.025-174.186-0.037c-108.559-0.023-217.118-0.113-325.677-0.073 c-42.095,0.015-84.19,0.031-126.284,0.046c0-8.122-3.802-35.695-3.802-35.695c0.283-3.736-120.003-4.829-133.691-22.292 c-4.458-5.699-6.984-12.633-9.44-19.439c-12.01-33.283-24.029-66.305-37.719-98.925c-40.661-4.265-82.018-1.693-122.832-1.452 c-43.397,0.256-86.795,0.383-130.192,0.425L1126,176.624c-132.525-0.755-265.052-1.539-397.345-1.462 c-0.191,0.063-0.451,0.087-0.653,0.144l-28.156-0.093c-14.179-1.318-29.195-2.889-37.571-0.125l-6.492-0.022 c-5.999-51.76-13.825-93.731-22.646-120.744c-7.269-23.08-15.228-36.071-23.406-35.92c-20.929,0.38-37.343,86.261-42.941,208.669 l-481.111-0.114c-6.502-82.201-16.79-137.355-27.418-137.168c-15.927,0.288-26.58,124.719-23.793,277.919 c2.792,153.193,17.964,277.16,33.89,276.866c11.452-0.207,20.177-64.592,23.141-157.7l479.187,0.227 c6.154,82.382,16.559,149.523,28.912,187.36c7.268,23.076,15.225,36.067,23.4,35.919c18.429-0.334,33.363-66.95,40.493-166.428 c366.488,0.144,732.947,0.29,1099.688,0.264l1.335-3.551c7.204-15.869,12.945-32.491,18.499-49.201l21.795-57.965 c3.742-8.006,7.778-15.858,12.553-23.319c3.019-4.717,76.773-4.062,91.835-5.486c6.083-0.575,31.874-2.864,31.874-2.864 s3.062-26.875,3.062-34.255c0,0,649.894,0.135,649.893,0.132C2586.417,364.992,2579.438,363.669,2569.293,355.322z"/> </g> </svg>